G04 #@! TF.FileFunction,Soldermask,Bot*
%FSLAX46Y46*%
G04 Gerber Fmt 4.6, Leading zero omitted, Abs format (unit mm)*
G04 Created by KiCad (PCBNEW 4.0.7) date 06/25/19 00:48:09*
%MOMM*%
%LPD*%
G01*
G04 APERTURE LIST*
%ADD10C,0.100000*%
%ADD11C,4.200000*%
%ADD12R,1.800000X2.600000*%
%ADD13O,1.800000X2.600000*%
%ADD14C,8.200000*%
%ADD15R,1.800000X1.800000*%
%ADD16C,1.800000*%
%ADD17R,2.200000X2.200000*%
%ADD18O,2.200000X2.200000*%
%ADD19C,1.400000*%
%ADD20R,1.400000X1.400000*%
%ADD21C,2.198980*%
%ADD22R,4.700000X5.200000*%
%ADD23C,2.200000*%
%ADD24O,1.800000X1.800000*%
%ADD25R,1.724000X1.724000*%
%ADD26C,1.724000*%
G04 APERTURE END LIST*
D10*
D11*
X177500000Y-102500000D03*
D12*
X123000000Y-113000000D03*
D13*
X140780000Y-102840000D03*
X125540000Y-113000000D03*
X138240000Y-102840000D03*
X128080000Y-113000000D03*
X135700000Y-102840000D03*
X130620000Y-113000000D03*
X133160000Y-102840000D03*
X133160000Y-113000000D03*
X130620000Y-102840000D03*
X135700000Y-113000000D03*
X128080000Y-102840000D03*
X138240000Y-113000000D03*
X125540000Y-102840000D03*
X140780000Y-113000000D03*
X123000000Y-102840000D03*
D14*
X175000000Y-130000000D03*
D15*
X149000000Y-111500000D03*
D16*
X146500000Y-111500000D03*
X153500000Y-93000000D03*
X153500000Y-95500000D03*
D17*
X151000000Y-115000000D03*
D18*
X148460000Y-115000000D03*
D17*
X116500000Y-96500000D03*
D18*
X116500000Y-99040000D03*
D14*
X136500000Y-133000000D03*
X146000000Y-133000000D03*
X156000000Y-133000000D03*
X166000000Y-133000000D03*
X181000000Y-122500000D03*
X184500000Y-113500000D03*
X115000000Y-118500000D03*
X119500000Y-127000000D03*
X127000000Y-133000000D03*
D19*
X153270000Y-110230000D03*
X154540000Y-111500000D03*
D20*
X152000000Y-111500000D03*
D19*
X161230000Y-94770000D03*
X159960000Y-93500000D03*
D20*
X162500000Y-93500000D03*
D21*
X141910000Y-89300000D03*
X139370000Y-89300000D03*
X144450000Y-89300000D03*
D10*
G36*
X144100000Y-93700000D02*
X148800000Y-93700000D01*
X148800000Y-98900000D01*
X144100000Y-98900000D01*
X144100000Y-93700000D01*
X144100000Y-93700000D01*
G37*
D22*
X137450000Y-96300000D03*
D23*
X145250000Y-107500000D03*
D18*
X149250000Y-107500000D03*
D23*
X154000000Y-102750000D03*
D18*
X154000000Y-106750000D03*
D23*
X131800000Y-90200000D03*
D18*
X131800000Y-94200000D03*
D23*
X150500000Y-93250000D03*
D18*
X150500000Y-97250000D03*
D23*
X156500000Y-96250000D03*
D18*
X156500000Y-92250000D03*
D16*
X163250000Y-89500000D03*
D24*
X159250000Y-89500000D03*
D25*
X123000000Y-99000000D03*
D26*
X125540000Y-99000000D03*
X128080000Y-99000000D03*
D11*
X177500000Y-110000000D03*
M02*
