M48
INCH,TZ
T1C0.012
T2C0.024
T3C0.031
T4C0.032
T5C0.047
T6C0.118
%
G90
G05
T1
X45276Y-46654
X47047Y-50000
X50000Y-52362
X53740Y-52362
X57480Y-52362
X61417Y-52362
X65354Y-52362
X68898Y-51181
X69882Y-40354
X69882Y-43307
X71260Y-48228
X72638Y-44685
T2
X59843Y-43898
X60343Y-43398
X60843Y-43898
X62976Y-36811
X63476Y-37311
X63976Y-36811
T3
X45866Y-37992
X45866Y-38992
X47441Y-40551
X48327Y-43209
X48425Y-40488
X48425Y-44488
X49425Y-40488
X49425Y-44488
X50425Y-40488
X50425Y-44488
X51425Y-40488
X51425Y-44488
X51890Y-35512
X51890Y-37087
X52425Y-40488
X52425Y-44488
X53425Y-40488
X53425Y-44488
X53937Y-39567
X54425Y-40488
X54425Y-44488
X55425Y-40488
X55425Y-44488
X56102Y-39567
X57185Y-42323
X57677Y-43898
X58449Y-45276
X58661Y-43898
X58760Y-42323
X59252Y-36713
X59252Y-38287
X59449Y-45276
X60433Y-36614
X60433Y-37598
X60630Y-40453
X60630Y-42028
X61614Y-36319
X61614Y-37894
X62697Y-35236
X64272Y-35236
T4
X48425Y-38976
X49425Y-38976
X50425Y-38976
T5
X54870Y-35157
X55870Y-35157
X56870Y-35157
T6
X54114Y-37913
X57657Y-37913
T0
M30
